<?xml version="1.0" standalone="no"?>
<!DOCTYPE svg PUBLIC "-//W3C//DTD SVG 20010904//EN"
 "http://www.w3.org/TR/2001/REC-SVG-20010904/DTD/svg10.dtd">
<svg version="1.0" xmlns="http://www.w3.org/2000/svg"
 width="1300.000000pt" height="1300.000000pt" viewBox="0 0 1300.000000 1300.000000"
 preserveAspectRatio="xMidYMid meet">

<g transform="translate(0.000000,1300.000000) scale(0.100000,-0.100000)"
fill="#000000" stroke="none">
<path d="M3985 10081 c-75 -35 -136 -100 -164 -175 l-21 -57 0 -3349 0 -3349
21 -55 c28 -76 94 -146 167 -179 l60 -27 2463 2 2464 3 51 27 c60 32 118 93
148 157 l21 46 3 2647 2 2647 -617 -1 c-604 -1 -620 -1 -683 20 -170 55 -294
173 -358 338 l-27 69 -3 633 -3 632 -1732 0 -1732 0 -60 -29z m1395 -331 c372
-46 674 -257 835 -585 132 -269 149 -549 49 -825 -56 -156 -128 -269 -251
-393 -418 -421 -1099 -414 -1509 15 -121 127 -207 275 -261 453 -25 84 -27
103 -27 275 -1 163 2 195 22 270 53 193 130 327 272 471 149 152 275 229 467
284 141 41 263 52 403 35z m877 -2597 c32 -19 62 -61 69 -98 8 -45 -25 -119
-63 -138 -37 -20 12 -19 -1057 -18 l-918 1 -39 39 c-35 34 -39 44 -39 87 0 54
25 105 62 126 18 10 183 14 793 18 867 6 1159 1 1192 -17z m1013 -855 c80 -41
81 -44 78 -425 -3 -317 -4 -333 -24 -360 -11 -15 -36 -36 -55 -45 -32 -17
-123 -18 -1486 -18 -1608 0 -1511 -4 -1552 64 -24 39 -23 28 -22 403 l1 311
27 33 c52 62 -44 58 1538 59 l1451 0 44 -22z m1350 -1443 c89 -46 90 -186 3
-238 -29 -17 -136 -17 -2064 -17 -1119 0 -2087 0 -2152 0 l-117 0 -36 33 c-60
55 -63 143 -6 200 24 23 42 31 88 36 33 3 1003 5 2157 4 1860 -3 2101 -5 2127
-18z m0 -1150 c88 -46 91 -182 5 -235 -32 -20 -43 -20 -2174 -20 -2305 0
-2168 -3 -2215 49 -13 15 -21 41 -24 80 -4 56 -2 61 31 97 l35 39 649 5 c356
3 1327 4 2156 2 1327 -2 1512 -4 1537 -17z"/>
<path d="M5105 9465 c-404 -90 -674 -475 -616 -876 17 -111 58 -219 120 -317
76 -118 71 -117 145 -36 35 39 80 81 100 95 20 13 36 27 36 31 0 3 -16 30 -35
59 -132 202 -88 493 99 641 271 216 659 106 778 -220 16 -43 21 -81 21 -157 0
-113 -18 -176 -79 -266 -19 -28 -34 -54 -34 -58 0 -4 12 -14 28 -23 34 -21 86
-70 135 -128 l39 -45 39 45 c97 111 158 279 166 451 10 220 -58 407 -211 576
-92 102 -264 197 -415 229 -82 17 -236 17 -316 -1z"/>
<path d="M5195 8888 c-75 -26 -125 -90 -140 -176 -26 -157 145 -288 293 -226
147 61 178 261 56 362 -60 49 -139 64 -209 40z"/>
<path d="M5143 8175 c-23 -7 -62 -24 -85 -38 -52 -30 -141 -123 -135 -140 6
-20 156 -65 255 -77 111 -14 223 -2 341 35 107 35 106 34 70 83 -37 51 -134
117 -202 137 -61 18 -187 18 -244 0z"/>
<path d="M4480 5885 l0 -155 1295 0 1295 0 0 155 0 155 -1295 0 -1295 0 0
-155z"/>
<path d="M7732 9465 l3 -590 28 -57 c30 -62 83 -115 149 -150 l43 -23 600 -3
600 -2 -455 452 c-250 249 -571 568 -713 708 l-257 255 2 -590z"/>
</g>
</svg>
